<?xml version="1.0" standalone="no"?>
<!DOCTYPE svg PUBLIC "-//W3C//DTD SVG 20010904//EN"
 "http://www.w3.org/TR/2001/REC-SVG-20010904/DTD/svg10.dtd">
<svg version="1.0" xmlns="http://www.w3.org/2000/svg"
 width="500.000000pt" height="500.000000pt" viewBox="0 0 500.000000 500.000000"
 preserveAspectRatio="xMidYMid meet">
<metadata>
Created by potrace 1.14, written by Peter Selinger 2001-2017
</metadata>
<g transform="translate(0.000000,500.000000) scale(0.100000,-0.100000)"
fill="#000000" stroke="none">
<path d="M2505 4890 c-53 -13 -85 -29 -85 -41 0 -7 -3 -10 -6 -6 -10 10 -72
-71 -79 -104 -6 -25 -17 -35 -63 -56 -148 -69 -281 -199 -347 -338 -11 -22
-19 -42 -20 -45 0 -3 -4 -10 -8 -16 -33 -52 -56 -349 -31 -395 7 -13 13 -21
14 -17 0 10 38 -5 42 -16 2 -5 -8 -11 -21 -13 -35 -5 -98 -59 -118 -101 -23
-49 -26 -191 -5 -247 18 -47 75 -102 117 -113 17 -5 30 -15 30 -23 0 -8 3 -18
6 -24 4 -5 9 -23 13 -39 7 -28 98 -128 113 -124 5 1 17 -3 28 -9 19 -10 52
-12 240 -16 67 -2 70 -3 70 -27 0 -22 -4 -25 -40 -26 -120 -3 -197 -48 -246
-144 -22 -41 -24 -58 -25 -210 0 -91 3 -180 8 -199 5 -18 11 -42 13 -53 2 -11
22 -46 44 -78 l40 -58 -2 -163 -2 -163 -47 -1 c-97 -3 -156 -84 -127 -173 14
-44 43 -69 87 -78 44 -9 278 -9 323 -1 35 7 76 42 97 82 15 30 8 97 -14 136
-17 29 -20 50 -18 139 1 58 2 107 3 110 1 4 61 5 146 1 14 -1 21 -9 22 -28 1
-16 7 -54 13 -86 6 -32 11 -62 11 -65 3 -22 -3 -40 -19 -58 -62 -66 -41 -178
41 -221 26 -13 60 -16 177 -15 179 2 180 2 210 27 80 66 62 184 -33 220 -24 9
-49 15 -57 13 -13 -3 -17 9 -34 112 -3 19 -7 44 -10 55 -2 11 -7 40 -10 65 -4
25 -8 54 -10 65 -2 11 12 41 31 67 35 48 75 146 67 160 -3 5 -2 8 3 8 12 0 8
309 -5 355 -30 106 -128 177 -244 176 -57 0 -58 1 -58 28 l0 29 133 1 c72 1
142 3 154 5 78 16 163 102 177 182 6 30 29 54 53 54 24 0 92 71 104 108 32 98
9 246 -46 298 -34 31 -83 56 -95 49 -6 -3 -10 -1 -10 4 0 6 16 17 35 25 32 14
41 30 37 67 -1 3 -2 50 -3 105 -2 137 -37 257 -103 363 -13 20 -23 38 -22 41
1 3 -33 39 -75 80 -74 73 -188 150 -241 163 -19 5 -28 15 -33 36 -10 45 -59
107 -109 136 -48 28 -127 39 -181 25z"/>
<path d="M3429 3410 c-64 -18 -96 -56 -104 -125 -6 -48 -15 -135 -20 -205 -7
-83 -14 -120 -25 -120 -4 0 -19 -22 -33 -49 -19 -39 -23 -61 -20 -101 2 -34
-1 -58 -9 -69 -7 -9 -18 -25 -24 -36 -23 -43 -66 -121 -72 -130 -13 -20 -8
-61 12 -97 23 -44 76 -82 136 -98 66 -18 149 1 169 38 6 11 24 25 41 32 16 7
30 20 31 29 0 9 3 45 5 81 3 36 6 79 7 97 2 18 12 42 24 55 32 34 50 109 37
156 -10 36 -7 46 46 156 32 65 58 118 59 119 1 1 4 12 7 25 4 12 10 22 15 22
11 0 0 30 -19 53 -8 9 -13 20 -9 23 3 3 0 20 -6 37 -12 34 -55 75 -100 94 -36
16 -114 23 -148 13z"/>
<path d="M1608 3369 c-10 -5 -18 -7 -18 -4 0 3 -10 0 -22 -7 -13 -7 -25 -13
-28 -14 -3 0 -14 -4 -25 -9 -11 -4 -60 -24 -110 -43 -49 -19 -95 -41 -102 -49
-12 -15 -11 -16 55 -175 18 -44 31 -46 97 -18 26 11 48 20 50 20 1 0 13 -26
25 -57 12 -32 26 -67 30 -78 5 -11 8 -48 8 -82 -1 -50 3 -69 20 -93 12 -16 22
-34 22 -39 0 -5 9 -13 21 -16 11 -4 25 -19 31 -33 6 -15 19 -46 29 -69 11 -24
19 -46 19 -51 0 -22 28 -62 53 -77 53 -31 97 -24 147 24 21 20 21 99 1 142
-30 60 -31 79 -10 108 10 14 22 47 25 73 13 92 -37 169 -131 201 -31 11 -41
21 -60 67 -27 63 -30 58 68 96 77 30 88 53 37 82 -16 9 -30 20 -30 25 0 4 -9
7 -19 7 -11 0 -22 4 -25 9 -7 10 -121 71 -133 71 -4 0 -16 -5 -25 -11z"/>
<path d="M535 1526 c-50 -22 -77 -60 -83 -114 -4 -41 0 -52 23 -80 15 -18 51
-45 79 -59 64 -32 86 -51 86 -74 0 -43 -65 -50 -134 -15 l-46 23 -19 -26 c-35
-48 -31 -64 23 -90 65 -32 146 -36 205 -10 50 22 67 40 80 87 21 71 -16 125
-121 177 -73 36 -90 57 -66 81 20 20 68 21 107 1 28 -14 29 -14 51 26 22 39
22 41 4 54 -44 32 -137 42 -189 19z"/>
<path d="M3262 1519 c-75 -37 -100 -126 -54 -189 11 -13 49 -41 86 -60 79 -42
91 -58 70 -89 -21 -29 -73 -27 -130 5 l-40 23 -26 -44 -27 -44 23 -14 c69 -45
190 -56 255 -23 41 22 71 71 71 117 0 58 -35 98 -122 141 -67 32 -78 42 -78
63 0 42 65 51 125 18 16 -9 22 -5 37 23 28 52 24 62 -34 79 -70 20 -105 19
-156 -6z"/>
<path d="M4372 1519 c-44 -26 -63 -55 -69 -100 -9 -62 16 -100 91 -140 75 -39
96 -57 96 -80 0 -43 -74 -51 -138 -14 l-42 24 -26 -41 -27 -42 23 -18 c35 -28
124 -50 176 -43 91 12 142 56 148 128 6 61 -34 109 -126 152 -64 30 -83 48
-74 70 10 26 47 34 96 19 25 -8 48 -14 51 -14 9 0 40 71 34 80 -10 16 -103 41
-145 38 -23 -1 -53 -9 -68 -19z"/>
<path d="M850 1301 l0 -231 53 0 53 0 -1 78 c-1 107 0 109 82 107 l68 -1 0
-92 0 -92 52 0 53 0 0 230 0 230 -53 0 -53 0 1 -90 c1 -100 9 -92 -80 -92 -25
0 -51 1 -58 1 -9 1 -12 25 -12 89 l0 87 -52 3 -53 3 0 -230z"/>
<path d="M1319 1523 c0 -5 0 -81 0 -169 0 -188 11 -230 68 -265 51 -32 148
-34 205 -6 79 41 83 53 86 263 l2 184 -53 0 -54 0 0 -154 c0 -163 -8 -197 -50
-208 -28 -7 -80 10 -89 30 -4 9 -8 85 -10 167 -1 83 -3 153 -3 158 -1 4 -23 7
-51 7 -27 0 -50 -3 -51 -7z"/>
<path d="M1788 1523 c-3 -7 -2 -424 1 -445 2 -14 210 -9 245 6 48 20 76 61 76
110 0 54 -18 87 -56 107 l-31 15 23 28 c42 49 28 132 -28 166 -27 16 -51 20
-130 20 -53 0 -98 -3 -100 -7z m166 -89 c22 -22 20 -50 -6 -68 -43 -30 -58
-21 -58 34 0 46 2 50 24 50 14 0 32 -7 40 -16z m28 -191 c42 -37 6 -93 -59
-93 l-33 0 0 55 0 55 37 0 c20 0 45 -7 55 -17z"/>
<path d="M2206 1317 c1 -116 2 -220 3 -229 1 -15 10 -18 51 -18 l49 0 3 92 3
93 70 0 70 0 3 -92 3 -93 53 0 52 0 0 230 0 230 -53 0 -53 0 0 -89 c0 -102 4
-98 -91 -93 l-59 4 0 89 0 89 -52 0 -53 0 1 -213z"/>
<path d="M2797 1488 c-16 -45 -121 -308 -137 -343 -5 -11 -14 -33 -20 -48
l-10 -28 57 3 c57 3 57 3 72 43 8 22 16 42 17 44 3 3 97 4 160 2 17 -1 24 -11
34 -46 l13 -45 58 0 59 0 -18 43 c-9 24 -51 127 -92 230 l-75 187 -52 0 -51 0
-15 -42z m95 -166 c10 -26 18 -52 18 -57 0 -6 -22 -11 -49 -11 l-50 0 16 35
c8 20 16 41 17 46 7 25 19 45 24 40 4 -3 14 -27 24 -53z"/>
<path d="M3588 1523 c-2 -5 -3 -107 -3 -228 l1 -220 52 -3 51 -3 3 93 3 93 70
0 70 0 3 -93 3 -92 52 0 52 0 1 230 0 230 -53 0 -53 0 0 -90 0 -90 -75 0 -75
0 0 90 0 90 -49 0 c-28 0 -51 -3 -53 -7z"/>
<path d="M4060 1299 l0 -230 53 3 52 3 0 228 1 227 -53 0 -53 0 0 -231z"/>
<path d="M2890 752 c-39 -11 -53 -68 -24 -96 23 -23 70 -20 88 5 31 45 -12
107 -64 91z"/>
<path d="M934 520 l0 -230 54 0 53 0 -3 90 c-2 50 -2 90 -1 90 2 0 34 -40 74
-90 l71 -90 65 0 c60 0 64 1 52 17 -8 9 -42 50 -76 92 l-62 75 38 35 c42 39
59 89 46 138 -19 80 -66 103 -209 103 l-102 0 0 -230z m169 141 c35 -13 46
-66 21 -91 -11 -10 -32 -20 -49 -22 l-30 -3 -3 63 c-3 68 4 74 61 53z"/>
<path d="M2398 738 c-2 -7 -4 -110 -3 -228 l0 -215 84 -3 c104 -4 164 15 214
66 46 48 67 98 67 164 -1 95 -48 168 -135 209 -49 23 -220 28 -227 7z m188
-100 c33 -16 62 -77 60 -124 -4 -68 -49 -119 -111 -126 l-30 -3 -3 138 -3 139
33 -7 c18 -3 43 -11 54 -17z"/>
<path d="M3519 676 c-1 -6 -1 -30 0 -53 1 -37 -2 -43 -19 -43 -21 0 -22 -2
-24 -47 -1 -21 4 -29 20 -31 20 -3 21 -10 22 -78 1 -84 16 -118 60 -135 26
-10 98 -4 106 10 2 3 -1 23 -7 44 -9 27 -16 35 -29 31 -22 -7 -30 8 -30 59 0
65 0 65 30 69 24 3 27 7 27 38 0 32 -3 35 -27 35 -29 -1 -29 -3 -32 75 -1 34
-1 34 -48 35 -27 1 -49 -4 -49 -9z"/>
<path d="M1480 578 c-85 -24 -128 -89 -116 -173 17 -107 166 -160 271 -95 93
57 91 196 -4 248 -46 25 -106 33 -151 20z m101 -99 c22 -22 21 -67 -2 -96 -16
-18 -74 -17 -93 3 -41 40 -8 114 50 114 13 0 33 -9 45 -21z"/>
<path d="M3227 579 c-16 -4 -35 -13 -43 -20 -11 -9 -14 -8 -14 3 0 10 -14 15
-50 17 l-50 2 0 -219 0 -219 50 1 50 0 0 83 c0 81 5 94 26 73 6 -6 30 -13 53
-16 90 -11 161 61 156 158 -6 99 -89 162 -178 137z m53 -99 c24 -24 26 -67 3
-92 -20 -22 -70 -23 -95 -1 -40 36 -8 113 47 113 14 0 34 -9 45 -20z"/>
<path d="M3841 577 c-51 -16 -91 -77 -91 -141 0 -116 106 -188 202 -138 21 11
36 15 35 8 -1 -7 16 -11 48 -11 l50 0 0 138 c0 130 -1 138 -20 142 -33 8 -80
0 -77 -13 1 -9 -4 -8 -20 2 -32 20 -86 26 -127 13z m128 -103 c36 -45 8 -104
-49 -104 -57 0 -85 59 -49 105 28 34 71 34 98 -1z"/>
<path d="M1779 526 c16 -28 46 -82 68 -120 l40 -70 -40 -75 c-65 -126 -65
-119 0 -117 l55 2 37 70 c132 246 181 346 176 354 -4 6 -28 10 -55 9 l-48 -2
-32 -70 c-17 -38 -35 -66 -40 -61 -4 5 -20 32 -35 59 -40 73 -41 74 -100 74
l-54 -1 28 -52z"/>
<path d="M2858 573 c-4 -7 -3 -253 1 -275 0 -5 23 -8 49 -8 l48 0 -1 142 0
143 -47 3 c-25 2 -48 -1 -50 -5z"/>
</g>
</svg>
